{"title":"Maria Larssons Everlasting Moment.x264.AC3.Nordic+Eng[.srt].mkv","uid":5458964,"size":2371530956,"categoryP":"video","categoryS":"movies","magnet":"?xt=urn:btih:c6ae39bc58f919f8eaf6a764a7a974c0d29f83ed&amp;dn=Maria+Larssons+Everlasting+Moment.x264.AC3.Nordic%2BEng%5B.srt%5D.mkv&amp;tr=udp%3A%2F%2Ftracker.openbittorrent.com%3A80&amp;tr=udp%3A%2F%2Fopen.demonii.com%3A1337&amp;tr=udp%3A%2F%2Ftracker.coppersurfer.tk%3A6969&amp;tr=udp%3A%2F%2Fexodus.desync.com%3A6969","seeders":1,"leechers":0,"uploader":"Zen_Bud","files":-1,"time":1269420225,"description":"Maria Larsson's Everlasting Moment aka Maria Larssons eviga ÃƒÂ¶gonblick\n\n\n\nGeneral\nComplete name                    : Maria Larssons eviga ÃƒÂ¶gonblick.mkv\nFormat                           : Matroska\nFile size                        : 2.21 GiB\nDuration                         : 2h 5mn\nOverall bit rate                 : 2 517 Kbps\nWriting application              : HandBrake 0.9.4\n\nVideo\nID                               : 1\nFormat                           : AVC\n\nDuration                         : 2h 5mn\nBit rate                         : 2 083 Kbps\nWidth                            : 720 pixels\nHeight                           : 568 pixels\nDisplay aspect ratio             : 16:9\nFrame rate                       : 25.000 fps\nResolution                       : 8 bits\nColorimetry                      : 4:2:0\nScan type                        : Progressive\nBits/(Pixel*Frame)               : 0.204\nStream size                      : 1.83 GiB (83%)\nWriting library                  : x264 core 79\n\n\nAudio #1\nID                               : 2\nFormat                           : AC-3\nFormat/Info                      : Audio Coding 3\nCodec ID                         : A_AC3\nDuration                         : 2h 5mn\nBit rate mode                    : Constant\nBit rate                         : 192 Kbps\nChannel(s)                       : 2 channels\nChannel positions                : Front: L R\nSampling rate                    : 48.0 KHz\nStream size                      : 173 MiB (8%)\nLanguage                         : Swedish\n\nAudio #2.........................: Syntolkning pÃƒÂ¥ svenska\nID                               : 3\nFormat                           : AC-3\nFormat/Info                      : Audio Coding 3\nCodec ID                         : A_AC3\nDuration                         : 2h 5mn\nBit rate mode                    : Constant\nBit rate                         : 192 Kbps\nChannel(s)                       : 2 channels\nChannel positions                : Front: L R\nSampling rate                    : 48.0 KHz\nStream size                      : 173 MiB (8%)\nLanguage                         : Swedish\n\nText #1\nLanguage                         : Swedish\n\nText #2\nLanguage                         : Norwegian\n\nText #3\nLanguage                         : Danish\n\nText #4\nLanguage                         : Finnish\n\n................... And English! .srt text file included !.................","torrent":{"xt":"urn:btih:c6ae39bc58f919f8eaf6a764a7a974c0d29f83ed","amp;dn":"Maria+Larssons+Everlasting+Moment.x264.AC3.Nordic%2BEng%5B.srt%5D.mkv","amp;tr":["udp%3A%2F%2Ftracker.openbittorrent.com%3A80","udp%3A%2F%2Fopen.demonii.com%3A1337","udp%3A%2F%2Ftracker.coppersurfer.tk%3A6969","udp%3A%2F%2Fexodus.desync.com%3A6969"],"infoHash":"c6ae39bc58f919f8eaf6a764a7a974c0d29f83ed","infoHashBuffer":{"type":"Buffer","data":[198,174,57,188,88,249,25,248,234,246,167,100,167,169,116,192,210,159,131,237]},"announce":[],"urlList":[]}}